<?xml version="1.0" encoding="UTF-8"?>
<svg id="Layer_1" xmlns="http://www.w3.org/2000/svg" version="1.1" viewBox="0 0 180 180">
  <!-- Generator: Adobe Illustrator 30.1.0, SVG Export Plug-In . SVG Version: 2.1.1 Build 136)  -->
  <defs>
    <style>
      .st0 {
        fill: #e31c47;
      }

      .st1 {
        fill: #0068af;
      }
    </style>
  </defs>
  <g>
    <g>
      <path class="st1" d="M53.12,81.73c0-5.73,3.07-10.76,7.65-13.53-.37-1.15-.58-2.38-.58-3.66,0-3.71.67-7.28,1.89-10.57-.93-.81-2.14-1.31-3.47-1.31h-11.79c-2.91,0-5.27,2.36-5.27,5.27v44.05c0,2.91,2.36,5.27,5.27,5.27h11.79c2.06,0,3.83-1.18,4.7-2.9-1.46-2.86-2.45-5.99-2.88-9.3-4.4-2.81-7.32-7.74-7.32-13.34Z"/>
      <path class="st1" d="M133.18,52.66h-11.79c-.62,0-1.21.11-1.76.31v.19c0,2.47-.39,4.85-1.11,7.09l.81,8.03c4.49,2.79,7.49,7.78,7.49,13.44s-2.89,10.47-7.25,13.29c-.42,3.32-1.42,6.47-2.89,9.34.87,1.72,2.65,2.9,4.7,2.9h11.79c2.91,0,5.27-2.36,5.27-5.27v-44.05c0-2.91-2.36-5.27-5.27-5.27h0Z"/>
    </g>
    <g>
      <g>
        <path class="st1" d="M104.42,121.86c-1.78,0-3.22-1.44-3.22-3.22v-.41c-3.13,1.18-6.52,1.83-10.07,1.83h-2.26c-3.54,0-6.93-.65-10.07-1.83v.41c0,1.78-1.44,3.22-3.22,3.22-9.49.54-17.14,7.97-18.01,17.37h64.85c-.87-9.4-8.52-16.83-18.01-17.37Z"/>
        <path class="st1" d="M110.99,76.46h-1.74v-2.04c0-.61-.03-1.22-.09-1.82-3.68,2.44-8.1,3.87-12.84,3.87h-25.57s-1.81,0-1.81,0c-2.91,0-5.27,2.36-5.27,5.27s2.36,5.27,5.27,5.27h1.81v4.38c0,10.01,8.11,18.12,18.12,18.12h2.26c10.01,0,18.12-8.11,18.12-18.12v-4.38h1.74c2.91,0,5.27-2.36,5.27-5.27s-2.36-5.27-5.27-5.27h0Z"/>
      </g>
      <path class="st1" d="M96.32,65.92h-24.2c-.76,0-1.38-.62-1.38-1.38,0-11.02,8.93-19.95,19.95-19.95h17.01c.76,0,1.38.62,1.38,1.38v7.19c0,7.05-5.71,12.76-12.76,12.76h0Z"/>
    </g>
  </g>
  <g>
    <path class="st0" d="M139.33,180H40.67v-24.95c0-2.91,2.36-5.27,5.27-5.27h88.11c2.91,0,5.27,2.36,5.27,5.27v24.95h0Z"/>
    <g>
      <g>
        <path class="st1" d="M180,105.11h-21.99c-2.91,0-5.27-2.36-5.27-5.27v-19.68c0-2.91,2.36-5.27,5.27-5.27h21.99v30.22Z"/>
        <path class="st1" d="M21.99,105.11H0v-30.22h21.99c2.91,0,5.27,2.36,5.27,5.27v19.68c0,2.91-2.36,5.27-5.27,5.27Z"/>
      </g>
      <g>
        <path class="st1" d="M21.99,64.34c1.79,0,3.52.3,5.13.86,7.43-18.77,23.03-33.45,42.39-39.62-.46-.38-.91-.77-1.35-1.18-5.35-4.95-8.82-11.5-9.94-18.63C32.08,15.65,11.73,37.34,3.71,64.34h18.28Z"/>
        <path class="st1" d="M152.88,65.2c1.61-.55,3.33-.86,5.13-.86h18.28c-8.02-27-28.36-48.69-54.51-58.57-1.12,7.13-4.59,13.68-9.94,18.63-.44.41-.89.8-1.35,1.18,19.36,6.17,34.96,20.85,42.39,39.62Z"/>
        <path class="st1" d="M30.12,155.05c0-8.02,6.01-14.67,13.76-15.68-7.27-6.79-13.04-15.16-16.76-24.57-1.61.55-3.33.86-5.13.86H3.72c4.82,16.23,14.09,30.54,26.41,41.53v-2.13Z"/>
        <path class="st1" d="M158.01,115.66c-1.79,0-3.52-.3-5.13-.86-3.72,9.4-9.5,17.77-16.76,24.57,7.75,1.01,13.76,7.66,13.76,15.68v2.13c12.31-10.98,21.59-25.29,26.41-41.53h-18.28Z"/>
      </g>
      <path class="st1" d="M68.45,2.6c.93,11.09,10.22,19.8,21.55,19.8s20.62-8.71,21.55-19.8C104.64.91,97.43,0,90,0s-14.64.91-21.55,2.6Z"/>
    </g>
  </g>
</svg>