<?xml version="1.0" encoding="UTF-8"?>
<svg id="Layer_1" xmlns="http://www.w3.org/2000/svg" version="1.1" viewBox="0 0 180 180">
  <!-- Generator: Adobe Illustrator 30.1.0, SVG Export Plug-In . SVG Version: 2.1.1 Build 136)  -->
  <defs>
    <style>
      .st0 {
        fill: #e31c47;
      }

      .st1 {
        fill: #0068af;
      }
    </style>
  </defs>
  <path class="st0" d="M171.13,104.32c0-.79-.34-1.55-.93-2.08l-6.67-6.1,1.8-8.83c.17-.76-.03-1.58-.48-2.19-.48-.65-1.18-1.07-1.97-1.15l-8.94-1.04-3.74-8.18c-.31-.73-.93-1.27-1.69-1.52-.76-.25-1.58-.17-2.25.22l-7.87,4.44-7.82-4.44c-.7-.39-1.52-.48-2.28-.22-.73.25-1.35.79-1.69,1.52l-3.74,8.18-8.97,1.04c-.79.08-1.49.51-1.94,1.15-.48.62-.65,1.43-.48,2.19l1.77,8.83-6.64,6.1c-.59.53-.9,1.29-.9,2.08s.34,1.55.9,2.08l6.64,6.07-1.8,8.86c-.14.79.03,1.58.51,2.22.45.65,1.18,1.04,1.94,1.13l8.97,1.01,3.74,8.21c.31.73.93,1.27,1.69,1.52.76.25,1.6.17,2.28-.23l7.82-4.47,7.87,4.47c1.35.82,3.26.23,3.97-1.29l3.71-8.21,8.94-1.01c.79-.08,1.49-.48,1.97-1.13.45-.65.65-1.43.48-2.22l-1.8-8.86,6.67-6.07c.59-.53.93-1.29.93-2.08ZM151.19,98.47l-15.72,15.69c-.53.56-1.27.82-1.97.82s-1.43-.25-2-.82l-5.85-5.85c-1.1-1.1-1.1-2.9,0-3.99,1.1-1.1,2.87-1.1,3.97,0l3.88,3.88,13.73-13.72c1.1-1.1,2.87-1.1,3.97,0,1.1,1.1,1.1,2.9,0,3.99Z"/>
  <path class="st0" d="M150.74,140.57v17.69c0,1.07-.59,2.02-1.52,2.5-.42.23-.84.31-1.29.31-.56,0-1.15-.17-1.63-.51l-7.9-5.57-7.87,5.57c-.84.62-1.97.7-2.9.2-.93-.48-1.52-1.43-1.52-2.5v-17.66c.14.06.28.11.42.17.87.28,1.74.42,2.67.42,1.49,0,2.95-.39,4.16-1.1l5.03-2.9,4.98,2.81c1.27.79,2.76,1.18,4.27,1.18,1.01,0,1.94-.17,2.78-.48.11-.03.2-.08.31-.14Z"/>
  <path class="st1" d="M113.27,78.36l5.79-.67,2.42-5.29c.98-2.11,2.78-3.74,4.95-4.5.93-.31,1.83-.45,2.73-.45,1.46,0,2.87.37,4.16,1.07l5.06,2.9,2.81-1.57V31.44h-28.6c-1.55,0-2.81-1.27-2.81-2.81V0H18.63c-5.37,0-9.76,4.39-9.76,9.76v160.48c0,5.4,4.39,9.76,9.76,9.76h112.81c5.4,0,9.76-4.36,9.76-9.76v-6.38l-2.81-1.97-4.61,3.26c-2.5,1.83-5.99,2.14-8.86.53-2.7-1.38-4.44-4.25-4.44-7.42v-22.53c0-.48.03-.96.14-1.43l-1.55-3.38-5.79-.65c-2.42-.28-4.58-1.55-5.93-3.52-1.32-1.77-1.86-4.11-1.43-6.44l1.18-5.85-4.28-3.91c-1.77-1.69-2.73-3.94-2.73-6.24s1.01-4.67,2.76-6.24l4.28-3.94-1.15-5.74c-.51-2.25.03-4.7,1.46-6.61,1.38-1.94,3.52-3.18,5.85-3.43ZM102.25,164.7H32.13c-1.55,0-2.81-1.27-2.81-2.81s1.27-2.81,2.81-2.81h70.12c1.55,0,2.81,1.24,2.81,2.81s-1.27,2.81-2.81,2.81ZM102.25,141.89H32.13c-1.55,0-2.81-1.27-2.81-2.81s1.27-2.81,2.81-2.81h70.12c1.55,0,2.81,1.27,2.81,2.81s-1.27,2.81-2.81,2.81ZM102.25,113.46c1.55,0,2.81,1.27,2.81,2.81s-1.27,2.81-2.81,2.81H32.13c-1.55,0-2.81-1.24-2.81-2.81s1.27-2.81,2.81-2.81h70.12ZM102.25,96.3H32.13c-1.55,0-2.81-1.27-2.81-2.81s1.27-2.81,2.81-2.81h70.12c1.55,0,2.81,1.24,2.81,2.81s-1.27,2.81-2.81,2.81ZM102.25,73.49H32.13c-1.55,0-2.81-1.27-2.81-2.81s1.27-2.81,2.81-2.81h70.12c1.55,0,2.81,1.27,2.81,2.81s-1.27,2.81-2.81,2.81ZM102.25,50.68H32.13c-1.55,0-2.81-1.27-2.81-2.81s1.27-2.81,2.81-2.81h70.12c1.55,0,2.81,1.27,2.81,2.81s-1.27,2.81-2.81,2.81ZM115.41,1.66v24.16h24.16L115.41,1.66Z"/>
</svg>