<?xml version="1.0" encoding="UTF-8"?>
<svg id="Layer_1" xmlns="http://www.w3.org/2000/svg" version="1.1" viewBox="0 0 180 180">
  <!-- Generator: Adobe Illustrator 30.1.0, SVG Export Plug-In . SVG Version: 2.1.1 Build 136)  -->
  <defs>
    <style>
      .st0 {
        fill: #e31c47;
      }

      .st1 {
        fill: #fd0062;
      }

      .st2 {
        fill: none;
      }

      .st3 {
        fill: #51be00;
      }

      .st4 {
        fill: #0068af;
      }
    </style>
  </defs>
  <g>
    <path class="st2" d="M122.4,45.51c.71-.2,1.12-.93.92-1.63-.19-.71-.93-1.13-1.63-.93-.04.01-3.78,1-7.07-.92-2.23-1.3-3.8-3.66-4.66-7-.18-.71-.91-1.14-1.62-.96-.71.18-1.14.91-.96,1.62,1.05,4.08,3.04,6.99,5.93,8.66,2.11,1.22,4.3,1.53,6,1.53s3-.33,3.09-.36Z"/>
    <path class="st2" d="M104.41,72.12c-1.28.04-2.47.02-3.58-.05,0,0,0,0,0,0,0,0,0,0,0,0-13.58-.8-14.93-8.75-14.99-9.14-.1-.73-.76-1.23-1.49-1.14-.73.1-1.24.77-1.14,1.49.06.44,1.49,9.81,15.9,11.31-2.29,11.26-12.66,10.83-13.11,10.82-.73-.04-1.36.52-1.4,1.25-.04.73.51,1.36,1.25,1.41.01,0,.12,0,.32,0,2.05,0,13.27-.59,15.63-13.3.87.03,1.76.04,2.71.01,2.91-.08,5.68,1.2,7.19,3.35,1.53,2.18,1.89,4.97,1.05,8.28-.18.71.25,1.44.96,1.62.11.03.22.04.33.04.6,0,1.14-.4,1.29-1,1.04-4.1.54-7.62-1.46-10.46-2.05-2.92-5.55-4.57-9.45-4.48Z"/>
    <path class="st2" d="M109.18,61.8c.6.43,1.43.29,1.86-.31.43-.6.29-1.43-.3-1.86-.17-.13-4.29-3.04-11.01-4.35-.5-5.42,5.29-8.88,5.35-8.92.63-.37.85-1.18.48-1.82-.37-.64-1.18-.86-1.82-.48-.3.17-6.93,4.09-6.72,10.81-6.3-.69-15.14.17-24.95,6.57,0,0-.01.01-.02.02l1.37,2.26s.07-.03.1-.05c19.78-12.92,35.02-2.33,35.66-1.87Z"/>
    <path class="st2" d="M71.68,63.29c.25.39.68.6,1.11.6.21,0,.42-.06.62-.17l-1.37-2.26c-.6.41-.77,1.22-.37,1.82Z"/>
    <path class="st2" d="M73.48,41.45s3.01-1.16,5.39-.07c1.09.5,1.88,1.4,2.43,2.71-2.34,3.61-1.95,7.19-1.94,7.25.09.67.66,1.16,1.32,1.16.05,0,.11,0,.17-.01.73-.09,1.24-.76,1.16-1.49,0-.06-.71-6.57,7.08-9.83.68-.28,1-1.06.72-1.74-.28-.68-1.07-1-1.74-.72-2.11.88-3.69,1.98-4.91,3.15-.8-1.32-1.86-2.31-3.2-2.91-3.43-1.55-7.3-.04-7.46.03-.68.27-1.01,1.04-.74,1.73.27.68,1.04,1.01,1.73.75Z"/>
    <path class="st2" d="M60.64,49.43c-.48.18-.67.52-.86.86-1.18,2.11-2.46,3.22-3.86,3.37.47-1.76,1.34-3.47,2.62-5.07.46-.57.37-1.41-.2-1.87-.57-.46-1.41-.37-1.87.2-1.88,2.34-3.04,4.92-3.44,7.57,0,0,0,0,0,0,0,0,0,.02,0,.02-.15,1-.2,2.01-.12,3.03.33,4.65,3.07,8.09,5.1,10.27.26.28.62.42.97.42.32,0,.65-.12.91-.36.54-.5.57-1.34.07-1.88-2.83-3.04-4.19-5.71-4.4-8.65-.02-.34-.03-.67-.02-1.01.03,0,.05,0,.08,0,2,0,4.39-1.03,6.49-4.77l.06-.11c.27-.35.35-.82.19-1.27-.26-.69-1.02-1.03-1.71-.78Z"/>
    <path class="st2" d="M136.8,88.87c-3.74-1.92-7.24-2.36-10.41-1.31-4.68,1.56-6.82,5.85-6.91,6.03-.32.66-.05,1.46.61,1.78.19.09.39.14.58.14.49,0,.97-.27,1.2-.75.02-.04,1.72-3.46,5.36-4.67,2.46-.82,5.27-.43,8.35,1.15.66.34,1.46.08,1.79-.58.34-.65.08-1.46-.58-1.79Z"/>
    <path class="st2" d="M143.68,75.09c-3.36-.43-9.41-1.84-13.46-6.36,2.06-2.37,2.8-5.63,2.17-9.71-.11-.73-.79-1.22-1.52-1.11-.73.11-1.22.79-1.11,1.52.52,3.38-.04,5.99-1.69,7.75-3.09,3.3-9.08,2.81-9.14,2.81-.74-.07-1.38.48-1.44,1.21-.07.73.47,1.38,1.2,1.45.07,0,.5.04,1.17.04,1.83,0,5.44-.3,8.38-2.22,3.47,3.88,8.77,6.46,15.12,7.28,1.39.18,2.8.27,4.16.27,4.22,0,8.04-.82,9.87-2.24.58-.45.69-1.29.24-1.87-.45-.58-1.29-.69-1.87-.24-1.59,1.23-6.66,2.13-12.06,1.44Z"/>
  </g>
  <g>
    <path class="st2" d="M70.41,41.52s3.01-1.16,5.39-.07c1.09.5,1.88,1.4,2.43,2.71-2.34,3.61-1.95,7.19-1.94,7.25.09.67.66,1.16,1.32,1.16.05,0,.11,0,.17-.01.73-.09,1.24-.76,1.16-1.49,0-.06-.71-6.57,7.08-9.83.68-.28,1-1.06.72-1.74-.28-.68-1.07-1-1.74-.72-2.11.88-3.69,1.98-4.91,3.15-.8-1.32-1.86-2.31-3.2-2.91-3.43-1.55-7.3-.04-7.46.03-.68.27-1.01,1.04-.74,1.73.27.68,1.04,1.01,1.73.75Z"/>
    <path class="st2" d="M106.11,61.87c.6.43,1.43.29,1.86-.31.43-.6.29-1.43-.3-1.86-.17-.13-4.29-3.04-11.01-4.35-.5-5.42,5.29-8.88,5.35-8.92.63-.37.85-1.18.48-1.82-.37-.64-1.18-.86-1.82-.48-.3.17-6.93,4.09-6.72,10.81-6.3-.69-15.14.17-24.95,6.57,0,0-.01.01-.02.02-.6.41-.77,1.22-.37,1.82.25.39.68.6,1.11.6.21,0,.42-.06.62-.17.03-.02.07-.03.1-.05,19.78-12.92,35.02-2.33,35.66-1.87Z"/>
    <path class="st2" d="M57.58,49.5c-.48.18-.67.52-.86.86-1.18,2.11-2.46,3.22-3.86,3.37.47-1.76,1.34-3.47,2.62-5.07.46-.57.37-1.41-.2-1.87-.57-.46-1.41-.37-1.87.2-1.88,2.34-3.04,4.92-3.44,7.57,0,0,0,0,0,0,0,0,0,.02,0,.02-.15,1-.2,2.01-.12,3.03.33,4.65,3.07,8.09,5.1,10.27.26.28.62.42.97.42.32,0,.65-.12.91-.36.54-.5.57-1.34.07-1.88-2.83-3.04-4.19-5.71-4.4-8.65-.02-.34-.03-.67-.02-1.01.03,0,.05,0,.08,0,2,0,4.39-1.03,6.49-4.77l.06-.11c.27-.35.35-.82.19-1.27-.26-.69-1.02-1.03-1.71-.78Z"/>
    <path class="st2" d="M140.62,75.16c-3.36-.43-9.41-1.84-13.46-6.36,2.06-2.37,2.8-5.63,2.17-9.71-.11-.73-.79-1.22-1.52-1.11-.73.11-1.22.79-1.11,1.52.52,3.38-.04,5.99-1.69,7.75-3.09,3.3-9.08,2.81-9.14,2.81-.74-.07-1.38.48-1.44,1.21-.07.73.47,1.38,1.2,1.45.07,0,.5.04,1.17.04,1.83,0,5.44-.3,8.38-2.22,3.47,3.88,8.77,6.46,15.12,7.28,1.39.18,2.8.27,4.16.27,4.22,0,8.04-.82,9.87-2.24.58-.45.69-1.29.24-1.87-.45-.58-1.29-.69-1.87-.24-1.59,1.23-6.66,2.13-12.06,1.44Z"/>
    <path class="st2" d="M101.34,72.19c-1.28.04-2.47.02-3.58-.05,0,0,0,0,0,0,0,0,0,0,0,0-13.58-.8-14.93-8.75-14.99-9.14-.1-.73-.76-1.23-1.49-1.14-.73.1-1.24.77-1.14,1.49.06.44,1.49,9.81,15.9,11.31-2.29,11.26-12.66,10.83-13.11,10.82-.73-.04-1.36.52-1.4,1.25-.04.73.51,1.36,1.25,1.41.01,0,.12,0,.32,0,2.05,0,13.27-.59,15.63-13.3.87.03,1.76.04,2.71.01,2.91-.08,5.68,1.2,7.19,3.35,1.53,2.18,1.89,4.97,1.05,8.28-.18.71.25,1.44.96,1.62.11.03.22.04.33.04.6,0,1.14-.4,1.29-1,1.04-4.1.54-7.62-1.46-10.46-2.05-2.92-5.55-4.57-9.45-4.48Z"/>
    <path class="st2" d="M133.73,88.94c-3.74-1.92-7.24-2.36-10.41-1.31-4.68,1.56-6.82,5.85-6.91,6.03-.32.66-.05,1.46.61,1.78.19.09.39.14.58.14.49,0,.97-.27,1.2-.75.02-.04,1.72-3.46,5.36-4.67,2.46-.82,5.27-.43,8.35,1.15.66.34,1.46.08,1.79-.58.34-.65.08-1.46-.58-1.79Z"/>
    <path class="st2" d="M119.33,45.58c.71-.2,1.12-.93.92-1.63-.19-.71-.93-1.13-1.63-.93-.04.01-3.78,1-7.07-.92-2.23-1.3-3.8-3.66-4.66-7-.18-.71-.91-1.14-1.62-.96-.71.18-1.14.91-.96,1.62,1.05,4.08,3.04,6.99,5.93,8.66,2.11,1.22,4.3,1.53,6,1.53s3-.33,3.09-.36Z"/>
    <path class="st2" d="M137.34,24.22c.28-.19.58-.36.87-.53-.29.17-.58.34-.87.53Z"/>
    <path class="st2" d="M139.2,23.14c.43-.22.86-.44,1.31-.63-.45.19-.88.41-1.31.63Z"/>
    <path class="st2" d="M141.19,22.24c.37-.14.73-.28,1.11-.41-.38.12-.74.26-1.11.41Z"/>
    <path class="st2" d="M135.88,25.28c.2-.16.42-.32.63-.47-.21.15-.42.31-.63.47Z"/>
    <path class="st2" d="M146.84,20.88c.65-.06,1.31-.1,1.98-.1-.67,0-1.33.04-1.98.1Z"/>
    <path class="st2" d="M169.78,41.75c0,.69-.04,1.37-.1,2.05.07-.67.1-1.36.1-2.05Z"/>
    <path class="st2" d="M144.91,21.16c.43-.08.86-.14,1.3-.2-.44.05-.87.12-1.3.2Z"/>
    <polygon class="st2" points="151.95 62.45 151.95 62.45 151.95 62.45 151.95 62.45"/>
    <polygon class="st2" points="128.66 36.05 128.66 36.05 128.66 36.05 128.66 36.05"/>
    <path class="st2" d="M129.15,34.56c.03-.08.06-.15.08-.23-.03.08-.06.15-.08.23Z"/>
    <path class="st2" d="M133.39,27.6c.1-.11.2-.22.3-.33-.1.11-.2.22-.3.33Z"/>
    <path class="st2" d="M134.54,26.43c.16-.15.32-.3.49-.44-.17.15-.33.29-.49.44Z"/>
    <path class="st2" d="M129.81,32.95c.03-.07.07-.14.1-.21-.03.07-.07.14-.1.21Z"/>
    <path class="st2" d="M143.03,21.61c.38-.11.77-.21,1.16-.3-.39.09-.77.19-1.16.3Z"/>
    <path class="st2" d="M165.91,53.84c-.13.18-.26.35-.4.53.13-.18.27-.35.4-.53Z"/>
    <path class="st2" d="M167.88,50.42c-.13.28-.26.56-.4.83.14-.27.27-.55.4-.83Z"/>
    <path class="st2" d="M169.19,46.59c-.09.37-.18.74-.28,1.1.11-.36.2-.73.28-1.1Z"/>
    <path class="st2" d="M166.97,52.19c-.14.23-.28.47-.42.69.14-.23.29-.46.42-.69Z"/>
    <path class="st2" d="M168.62,48.56c-.11.32-.23.65-.35.96.13-.32.24-.64.35-.96Z"/>
    <path class="st2" d="M169.58,44.48c-.06.44-.12.87-.2,1.3.08-.43.14-.86.2-1.3Z"/>
    <path class="st2" d="M164.71,55.38c-.09.11-.19.21-.28.31.09-.1.19-.21.28-.31Z"/>
    <path class="st3" d="M128.03,39.18c.04-.3.09-.6.14-.9-.05.3-.1.6-.14.9Z"/>
    <path class="st3" d="M150.51,62.62c-.56.05-1.12.09-1.69.09.57,0,1.14-.03,1.69-.09Z"/>
    <path class="st3" d="M127.85,41.75c0-.61.04-1.22.09-1.82-.05.6-.09,1.21-.09,1.82Z"/>
    <polygon class="st3" points="128.66 36.05 128.66 36.05 128.66 36.06 128.66 36.05"/>
    <polygon class="st3" points="151.95 62.45 151.95 62.45 151.95 62.45 151.95 62.45"/>
    <path class="st4" d="M148.82,20.78c-.67,0-1.33.04-1.98.1-.21.02-.42.05-.63.08-.44.05-.87.12-1.3.2-.24.05-.48.1-.72.15-.39.09-.77.19-1.16.3-.24.07-.49.14-.73.22-.38.12-.74.26-1.11.41-.23.09-.46.17-.68.27-.45.19-.88.41-1.31.63-.34.18-.67.36-.99.56-.29.17-.58.34-.87.53-.28.19-.56.39-.83.59-.21.15-.42.31-.63.47-.29.23-.57.46-.85.71-.17.14-.33.29-.49.44-.29.27-.58.55-.86.84-.1.11-.2.22-.3.33-1.4,1.52-2.57,3.25-3.47,5.14-.03.07-.07.14-.1.21-.21.45-.41.92-.58,1.39-.03.08-.06.15-.08.23-.18.49-.34.98-.49,1.49,0,0,0,0,0,0,0,0,0,0,0,0-.2.72-.36,1.47-.49,2.22-.05.3-.1.6-.14.9-.03.25-.06.5-.08.75-.05.6-.09,1.21-.09,1.82,0,11.56,9.4,20.96,20.96,20.96.57,0,1.13-.04,1.69-.09.48-.04.96-.1,1.44-.17,0,0,0,0,0,0,0,0,0,0,0,0,4.93-.74,9.29-3.21,12.48-6.76.09-.1.19-.21.28-.31.28-.33.54-.67.81-1.01.13-.18.27-.35.4-.53.22-.31.43-.64.64-.96.14-.23.29-.46.42-.69.18-.3.34-.61.5-.93.14-.27.27-.55.4-.83.14-.3.27-.6.39-.9.13-.32.24-.64.35-.96.1-.29.2-.57.29-.87.11-.36.2-.73.28-1.1.06-.27.14-.54.19-.82.08-.43.14-.86.2-1.3.03-.23.07-.45.1-.69.07-.67.1-1.36.1-2.05,0-11.56-9.4-20.96-20.96-20.96ZM161.91,46.55h-8.29v8.29h-9.6v-8.29h-8.29v-9.6h8.29v-8.29h9.6v8.29h8.29v9.6Z"/>
    <path class="st0" d="M124.86,41.75c0-2.14.31-4.2.84-6.17-1.48-.11-2.96-.04-4.34.24-1.19.24-2.42.62-3.59.28-1.84-.52-2.62-2.46-3.82-3.75-1.02-1.09-2.23-2-3.55-2.69-5.58-2.9-13.45-1.85-18.35,1.89-1.55,1.18-2.87,2.13-4.87,1.32-1.09-.44-2.03-1.19-3.05-1.78-2.54-1.45-5.64-1.82-8.51-1.23-3.65.75-7.31,2.95-9.04,6.32-.32.62-.58,1.28-1.03,1.81-.86.99-2.1.7-3.27.83-1.36.16-2.7.52-3.98,1-2.4.91-4.61,2.3-6.51,4.02-1.52,1.37-2.87,2.95-3.96,4.68-.34.54-.66,1.1-.95,1.67-1.5,2.95-2.25,6.25-1.89,9.66.96,9.14,9.7,16.34,18.75,16.27.17,0,2.43,4.12,2.71,4.49,1.33,1.76,2.87,3.36,4.57,4.76,8.41,6.91,19.4,7.55,29.61,5.16,1.02-.24,2.09-.12,3,.39,2.57,1.44,7.58,5.09,8.87,12.21.37,2.02,2.07,3.53,4.13,3.53h.67c2.31,0,4.18-1.87,4.18-4.18v-.13c0-2.23,1.75-4.08,3.99-4.18,2.57-.11,5.51-.36,6.01-.38,4.86-.24,9.61-1.71,13.69-4.39,9.26-6.1,14.28-18.06,8.65-28.23-1.61.34-3.27.53-4.98.53-13.21,0-23.95-10.74-23.95-23.95ZM59.1,51.55l-.06.11c-2.1,3.74-4.49,4.77-6.49,4.77-.03,0-.05,0-.08,0,0,.34,0,.67.02,1.01.21,2.94,1.57,5.61,4.4,8.65.5.54.47,1.38-.07,1.88-.26.24-.58.36-.91.36-.36,0-.71-.14-.97-.42-2.03-2.18-4.77-5.62-5.1-10.27-.07-1.01-.02-2.03.12-3.03,0,0,0-.02,0-.02,0,0,0,0,0,0,.4-2.65,1.55-5.22,3.44-7.57.46-.57,1.3-.66,1.87-.2.57.46.67,1.3.2,1.87-1.28,1.6-2.16,3.31-2.62,5.07,1.41-.16,2.68-1.26,3.86-3.37.19-.33.38-.68.86-.86.69-.25,1.46.09,1.71.78.16.44.08.92-.19,1.27ZM69.43,39.05c.16-.07,4.04-1.58,7.46-.03,1.34.61,2.4,1.6,3.2,2.91,1.22-1.17,2.8-2.27,4.91-3.15.67-.28,1.46.04,1.74.72.28.68-.04,1.46-.72,1.74-7.79,3.25-7.09,9.76-7.08,9.83.09.73-.43,1.39-1.16,1.49-.06,0-.11.01-.17.01-.66,0-1.23-.49-1.32-1.16,0-.06-.4-3.63,1.94-7.25-.55-1.31-1.34-2.21-2.43-2.71-2.39-1.09-5.36.06-5.39.07-.69.27-1.46-.07-1.73-.75-.27-.68.06-1.45.74-1.73ZM70.45,63.75s-.07.03-.1.05c-.2.11-.41.17-.62.17-.43,0-.86-.21-1.11-.6-.4-.61-.23-1.42.37-1.82,0,0,.01-.01.02-.02,9.8-6.41,18.65-7.26,24.95-6.57-.2-6.72,6.42-10.63,6.72-10.81.64-.37,1.45-.15,1.82.48.37.64.15,1.45-.48,1.82-.06.04-5.85,3.5-5.35,8.92,6.72,1.31,10.84,4.23,11.01,4.35.6.43.73,1.26.3,1.86-.43.6-1.26.73-1.86.31-.64-.46-15.88-11.05-35.66,1.87ZM112.25,87.14c-.15.6-.69,1-1.29,1-.11,0-.22-.01-.33-.04-.71-.18-1.14-.9-.96-1.62.84-3.31.48-6.1-1.05-8.28-1.52-2.15-4.29-3.44-7.19-3.35-.95.03-1.84.02-2.71-.01-2.35,12.71-13.58,13.3-15.63,13.3-.2,0-.31,0-.32,0-.73-.04-1.29-.67-1.25-1.41.04-.73.67-1.28,1.4-1.25.44.01,10.82.44,13.11-10.82-14.41-1.5-15.84-10.87-15.9-11.31-.1-.73.41-1.4,1.14-1.49.74-.09,1.39.41,1.49,1.14.06.39,1.41,8.34,14.99,9.14,0,0,0,0,0,0,0,0,0,0,0,0,1.11.07,2.3.09,3.58.05,3.9-.09,7.39,1.56,9.45,4.48,2,2.84,2.49,6.36,1.46,10.46ZM110.24,44.41c-2.89-1.67-4.88-4.58-5.93-8.66-.18-.71.25-1.44.96-1.62.71-.18,1.44.25,1.62.96.86,3.35,2.42,5.7,4.66,7,3.29,1.92,7.04.94,7.07.92.71-.2,1.44.22,1.63.93.19.71-.22,1.44-.92,1.63-.1.03-1.34.36-3.09.36s-3.89-.31-6-1.53ZM134.31,90.73c-.34.65-1.13.91-1.79.58-3.08-1.58-5.9-1.97-8.35-1.15-3.63,1.21-5.34,4.63-5.36,4.67-.23.47-.7.75-1.2.75-.2,0-.39-.04-.58-.14-.66-.32-.93-1.12-.61-1.78.09-.18,2.22-4.47,6.91-6.03,3.17-1.05,6.67-.61,10.41,1.31.65.34.91,1.14.58,1.79ZM154.55,73.95c.45.58.34,1.42-.24,1.87-1.83,1.42-5.65,2.24-9.87,2.24-1.36,0-2.77-.09-4.16-.27-6.35-.82-11.65-3.4-15.12-7.28-2.93,1.92-6.55,2.22-8.38,2.22-.67,0-1.1-.04-1.17-.04-.73-.07-1.27-.71-1.2-1.45.07-.73.71-1.28,1.44-1.21.06,0,6.05.5,9.14-2.81,1.65-1.76,2.21-4.36,1.69-7.75-.11-.73.38-1.41,1.11-1.52.73-.11,1.41.38,1.52,1.11.63,4.09-.1,7.35-2.17,9.71,4.05,4.52,10.09,5.93,13.46,6.36,5.41.69,10.47-.21,12.06-1.44.58-.45,1.42-.35,1.87.24Z"/>
    <path class="st1" d="M169.68,43.79c-.02.23-.07.46-.1.69.03-.23.07-.45.1-.69Z"/>
    <path class="st1" d="M168.91,47.69c-.09.29-.19.58-.29.87.1-.29.2-.57.29-.87Z"/>
    <path class="st1" d="M138.21,23.7c.33-.19.65-.38.99-.56-.34.18-.66.36-.99.56Z"/>
    <path class="st1" d="M151.95,62.45c4.93-.74,9.3-3.2,12.48-6.76-3.18,3.55-7.55,6.01-12.48,6.76Z"/>
    <path class="st1" d="M144.18,21.32c.24-.05.48-.11.72-.15-.24.05-.48.1-.72.15Z"/>
    <path class="st1" d="M165.51,54.37c-.26.34-.52.68-.81,1.01.28-.33.55-.67.81-1.01Z"/>
    <path class="st1" d="M169.38,45.78c-.05.28-.13.54-.19.82.06-.27.14-.54.19-.82Z"/>
    <path class="st1" d="M146.21,20.96c.21-.03.42-.06.63-.08-.21.02-.42.05-.63.08Z"/>
    <path class="st1" d="M142.3,21.83c.24-.08.48-.15.73-.22-.24.07-.49.14-.73.22Z"/>
    <path class="st1" d="M140.51,22.51c.22-.1.45-.18.68-.27-.23.09-.46.17-.68.27Z"/>
    <path class="st1" d="M129.23,34.33c.18-.47.37-.93.58-1.39-.21.45-.4.92-.58,1.39Z"/>
    <path class="st1" d="M135.03,25.99c.28-.24.56-.48.85-.71-.29.23-.57.46-.85.71Z"/>
    <path class="st1" d="M133.69,27.27c.28-.29.57-.57.86-.84-.29.27-.58.55-.86.84Z"/>
    <path class="st1" d="M128.66,36.05c.14-.5.31-1,.49-1.49-.18.49-.34.98-.49,1.49Z"/>
    <path class="st1" d="M167.47,51.26c-.16.31-.33.62-.5.93.18-.3.34-.61.5-.93Z"/>
    <path class="st1" d="M166.55,52.88c-.21.33-.41.65-.64.96.22-.31.43-.63.64-.96Z"/>
    <path class="st1" d="M136.51,24.81c.27-.2.55-.4.83-.59-.28.19-.56.39-.83.59Z"/>
    <path class="st1" d="M168.27,49.52c-.12.3-.25.6-.39.9.14-.3.27-.6.39-.9Z"/>
    <path class="st1" d="M129.91,32.74c.9-1.89,2.08-3.61,3.47-5.14-1.4,1.52-2.57,3.25-3.47,5.14Z"/>
    <path class="st1" d="M127.94,39.93c.02-.25.05-.5.08-.75-.03.25-.06.5-.08.75Z"/>
    <path class="st1" d="M128.16,38.28c.13-.75.29-1.49.49-2.22-.2.72-.37,1.46-.49,2.22Z"/>
    <path class="st1" d="M151.95,62.45c-.47.07-.95.13-1.44.17.48-.04.96-.1,1.44-.17Z"/>
  </g>
  <path class="st4" d="M114.56,120.48c-15.12-6.95-31.99-9.56-46.82-17.16-22.21-11.39-32.26-35.06-24.36-59.09,5.75-17.49,20.23-32.17,37.3-38.73,7.29-2.8,14.94-4.48,22.7-5.42-8.58-.38-17.24.51-25.53,2.67-11.9,3.11-23.06,8.83-32.12,17.33-6.62,6.2-11.92,14-14.55,22.72-2.89,9.58,2.07,19.84-1.41,29.45-.76,2.09-4.14,5.81-15.7,17.32-1.37,1.36-2.75,2.74-3.85,3.85l10.88,9.93c.49,4.84.98,9.68,1.47,14.51,0,0,.47,4.6.47,4.6.78,7.69-2.12,13.94-3.08,21.35-.55,4.21,1.05,8.26,5.18,9.9,1.69.67,3.52.88,5.33,1.01,13.65.99,34.66-8.44,40.94,9.61,1.33,3.82,2.63,8.15,2.89,15.37,0,0,27.23.14,43.49.25,2.31.01,14.4.05,14.4.05-.16-1.14-.3-2.28-.4-3.42-.46-4.87-.44-9.77.02-14.62.73-7.71,2.64-15.29,5.61-22.43-5.04-8.41-13.74-14.87-22.84-19.05Z"/>
</svg>