<?xml version="1.0" encoding="UTF-8"?>
<svg id="Layer_1" xmlns="http://www.w3.org/2000/svg" version="1.1" viewBox="0 0 180 180">
  <!-- Generator: Adobe Illustrator 30.1.0, SVG Export Plug-In . SVG Version: 2.1.1 Build 136)  -->
  <defs>
    <style>
      .st0 {
        fill: #e31c47;
      }

      .st1 {
        fill: #0068af;
      }
    </style>
  </defs>
  <path class="st0" d="M157.2,1.58h-.1c-2.7.01-5.28,1.08-7.19,2.98l-60.28,60.28c.65-.07,1.3-.1,1.95-.1h25.77l46.94-45.71c1.95-1.93,3.06-4.55,3.08-7.29-.01-5.61-4.55-10.16-10.17-10.16ZM111.45,63.81l-6.31-6.31,4.46-4.47,6.32,6.32-4.47,4.46ZM120.92,54.34l-6.31-6.32,4.47-4.46,6.31,6.31-4.47,4.47ZM130.4,44.86l-6.32-6.31,4.47-4.47,6.31,6.32-4.46,4.46ZM139.87,35.39l-6.31-6.32,4.46-4.46,6.32,6.31-4.47,4.47ZM149.35,25.92l-6.32-6.32,4.47-4.47,6.31,6.32-4.46,4.47Z"/>
  <path class="st1" d="M149.11,42.63h30.89v82.02c-16.05-.85-31.1-8.09-41.78-20.1l-6.38-7.18c-.6-.67-1.46-1.06-2.36-1.06h-37.89c-6.98,0-12.63-5.66-12.63-12.63s5.66-12.63,12.63-12.63h60v-6.32h-25.18l22.7-22.11Z"/>
  <path class="st1" d="M30.65,100.4c-3.99-4-3.99-10.48,0-14.48l34.96-34.96c5.32-5.35,12.56-8.34,20.1-8.32h17.19l-57.77,57.77c-4,4-10.48,4-14.48,0h0Z"/>
  <path class="st1" d="M180,130.97v5.31c-5.41,6.66-13.53,10.54-22.11,10.56h-12.63c-.9,0-1.75.38-2.35,1.05l-24.51,27.24c-1.87,2.02-4.46,3.21-7.21,3.3-5.58.1-10.14-4.61-10.14-10.19v-.17c0-2.64,1.05-5.17,2.92-7.04l.08-.08,27.66-27.66-4.47-4.47-27.66,27.65c-.95.95-2.08,1.7-3.32,2.22-3.23,1.29-6.88.9-9.76-1.04-5.13-3.63-5.89-11.17-1.41-15.66l27.66-27.66-4.47-4.47-27.65,27.65c-4.43,4.43-11.89,3.77-15.56-1.27-2.13-2.92-3.1-8.79-.24-11.58l23.03-22.42c1.22.24,2.47.37,3.71.37h36.48l5.44,6.12c11.88,13.36,28.65,21.37,46.51,22.22Z"/>
  <path class="st0" d="M72.63,83.68c0-.65.03-1.3.1-1.95L0,154.46v23.86c12.21-.73,23.72-5.93,32.35-14.61l15.02-15.02v-14.48c0-.85.34-1.67.95-2.26l33.14-32.26c-5.49-3.47-8.82-9.51-8.83-16.01ZM25.38,158.43c-5.27,4.62-11.41,8.14-18.07,10.35l-1.99-5.99c5.85-1.94,11.26-5.04,15.9-9.11l17.75-15.53,4.16,4.75-17.75,15.53ZM60.92,114.34l-6.31-6.32,4.47-4.46,6.31,6.31-4.47,4.47ZM70.4,104.87l-6.32-6.32,4.47-4.47,6.31,6.32-4.46,4.47Z"/>
</svg>