<?xml version="1.0" encoding="UTF-8"?>
<svg id="Layer_1" xmlns="http://www.w3.org/2000/svg" version="1.1" viewBox="0 0 180 180">
  <!-- Generator: Adobe Illustrator 30.1.0, SVG Export Plug-In . SVG Version: 2.1.1 Build 136)  -->
  <defs>
    <style>
      .st0 {
        fill: #0068af;
        stroke: #0068af;
      }

      .st0, .st1 {
        stroke-miterlimit: 10;
        stroke-width: 2px;
      }

      .st1 {
        fill: #e31c47;
        stroke: #e31c47;
      }
    </style>
  </defs>
  <path class="st0" d="M148.66,91.6l-1.23-1.6,1.23-1.6c9.09-11.87,16.41-23.31,21.78-34.03,14.37-28.74,9.91-42.23,3.64-48.48-3.92-3.9-9.38-5.89-16.25-5.89-16.2,0-40.35,11.4-66.23,31.29l-1.6,1.22-1.61-1.22C62.49,11.4,38.36,0,22.16,0,15.29,0,9.83,1.98,5.92,5.89-.34,12.15-4.8,25.64,9.55,54.37c5.35,10.69,12.67,22.14,21.79,34.03l1.22,1.6-1.22,1.6c-9.11,11.89-16.44,23.34-21.79,34.03-14.35,28.72-9.9,42.23-3.63,48.48,3.91,3.9,9.37,5.89,16.24,5.89,16.2,0,40.35-11.4,66.23-31.29l1.61-1.23,1.6,1.23c25.88,19.88,50.02,31.29,66.23,31.29,6.86,0,12.33-1.98,16.25-5.89,6.26-6.26,10.71-19.76-3.64-48.48-5.31-10.66-12.65-22.11-21.78-34.03ZM157.84,12.94c3.3,0,5.68.71,7.08,2.11,3.29,3.28,3.68,14.04-6.06,33.53-4.59,9.19-10.81,18.99-18.22,28.96-5.69-6.68-11.81-13.35-18.31-19.88-6.58-6.57-13.22-12.71-19.87-18.38,24.06-17.92,44.2-26.34,55.38-26.34ZM18.78,49.77C9.99,32.16,7.9,18.49,13.22,13.18c1.9-1.9,4.91-2.87,8.95-2.87,13.08,0,34.37,10.04,56.95,26.85l2.66,1.98-2.52,2.14c-6.71,5.73-13.34,11.86-19.71,18.24-6.17,6.17-12.28,12.82-18.17,19.73l-2.15,2.51-1.97-2.65c-7.69-10.32-13.89-20.19-18.46-29.34ZM79.11,142.83c-22.57,16.82-43.86,26.87-56.95,26.87-4.04,0-7.04-.97-8.95-2.87-5.3-5.32-3.23-18.99,5.57-36.59,4.59-9.16,10.8-19.04,18.46-29.35l1.97-2.65,2.15,2.51c5.94,6.95,12.05,13.6,18.18,19.73,6.38,6.38,13.01,12.52,19.71,18.23l2.52,2.15-2.66,1.97ZM90,134.32l-1.7-1.42c-7.19-6.02-14.41-12.66-21.48-19.73-6.78-6.78-13.39-14.01-19.63-21.49l-1.42-1.69,1.42-1.69c6.24-7.48,12.85-14.7,19.63-21.49,7.02-7.03,14.24-13.66,21.48-19.73l1.7-1.42,1.69,1.42c7.19,6.02,14.42,12.66,21.47,19.73,6.79,6.78,13.4,14.02,19.64,21.49l1.41,1.69-1.41,1.69c-6.24,7.47-12.85,14.7-19.64,21.49-7.11,7.1-14.33,13.73-21.47,19.73l-1.69,1.42ZM166.79,166.82c-.95.95-2.17,1.67-3.67,2.14-1.5.49-3.27.73-5.28.73-13.1,0-34.39-10.04-56.95-26.86l-2.66-1.97,2.52-2.14c6.65-5.67,13.28-11.81,19.71-18.24,6.18-6.18,12.29-12.83,18.18-19.73l2.14-2.51,1.98,2.65c7.65,10.27,13.87,20.16,18.46,29.36,8.79,17.59,10.87,31.27,5.57,36.57Z"/>
  <path class="st1" d="M104.62,90c0,8.08-6.56,14.64-14.62,14.64s-14.64-6.56-14.64-14.64,6.57-14.64,14.64-14.64,14.62,6.56,14.62,14.64Z"/>
</svg>